<svg width="12" height="9" viewBox="0 0 12 9" fill="none" xmlns="http://www.w3.org/2000/svg">
<path d="M9.55326 0.219705C10.5345 -0.287551 11.7798 0.103664 11.9381 1.19683C11.9869 1.53431 12.0071 1.87652 11.9978 2.21983C11.9702 3.23351 11.6862 4.22366 11.1722 5.0978C10.6582 5.97194 9.93105 6.70155 9.05865 7.21848C8.18626 7.73542 7.19708 8.02282 6.18351 8.05383C5.16993 8.08485 4.16503 7.85847 3.26266 7.39583C2.3603 6.9332 1.5899 6.24941 1.02344 5.40833C0.456975 4.56725 0.112923 3.59632 0.023418 2.58623C-0.00689555 2.24414 -0.00767687 1.90133 0.0204646 1.5615C0.111622 0.460693 1.33069 -0.00592875 2.34108 0.440387L5.12405 1.66971C5.67791 1.91436 6.31279 1.89494 6.85065 1.61688L9.55326 0.219705Z" fill="#FBBB25"/>
</svg>
