<?xml version="1.0" encoding="UTF-8"?>
<svg version="1.1" xmlns="http://www.w3.org/2000/svg" width="48" height="48">
<path d="M0 0 C3 1 3 1 3.9375 2.8125 C4.288125 3.534375 4.63875 4.25625 5 5 C5.66 5.556875 6.32 6.11375 7 6.6875 C9.87458993 10.01124461 10.61073672 13.66467561 11 18 C10.81953125 18.71285156 10.6390625 19.42570312 10.453125 20.16015625 C10.30359375 20.76730469 10.1540625 21.37445312 10 22 C10.99307821 23.33849671 11.99357052 24.67151309 13 26 C13.1875 28.75 13.1875 28.75 13 31 C12.01 31 11.02 31 10 31 C9.855625 32.299375 9.71125 33.59875 9.5625 34.9375 C9.125 38.875 9.125 38.875 8 40 C4.43264046 40.15854931 1.43737738 39.89117191 -2 39 C-2.495 39.495 -2.495 39.495 -3 40 C-5.33297433 40.04092937 -7.66705225 40.04241723 -10 40 C-10 38.68 -10 37.36 -10 36 C-10.5259375 35.0409375 -10.5259375 35.0409375 -11.0625 34.0625 C-12.2880743 31.36623655 -11.77647642 29.79531511 -11 27 C-11.9590625 26.690625 -11.9590625 26.690625 -12.9375 26.375 C-15 25 -15 25 -15.75 21.875 C-15.8325 20.92625 -15.915 19.9775 -16 19 C-15.01 18.67 -14.02 18.34 -13 18 C-12.34081717 16.02203492 -12.34081717 16.02203492 -12.0625 13.6875 C-11.26846743 9.57415093 -10.40534857 7.62698319 -7 5 C-6.13375 4.278125 -5.2675 3.55625 -4.375 2.8125 C-2 1 -2 1 0 0 Z " fill="#EADAC5" transform="translate(25,4)"/>
<path d="M0 0 C3 1 3 1 3.9375 2.8125 C4.288125 3.534375 4.63875 4.25625 5 5 C5.66 5.556875 6.32 6.11375 7 6.6875 C9.87458993 10.01124461 10.61073672 13.66467561 11 18 C10.81953125 18.71285156 10.6390625 19.42570312 10.453125 20.16015625 C10.30359375 20.76730469 10.1540625 21.37445312 10 22 C10.99307821 23.33849671 11.99357052 24.67151309 13 26 C13.1875 28.75 13.1875 28.75 13 31 C12.01 31 11.02 31 10 31 C9.855625 32.299375 9.71125 33.59875 9.5625 34.9375 C9.125 38.875 9.125 38.875 8 40 C4.43264046 40.15854931 1.43737738 39.89117191 -2 39 C-2.495 39.495 -2.495 39.495 -3 40 C-5.33297433 40.04092937 -7.66705225 40.04241723 -10 40 C-10 38.68 -10 37.36 -10 36 C-10.5259375 35.0409375 -10.5259375 35.0409375 -11.0625 34.0625 C-12.2880743 31.36623655 -11.77647642 29.79531511 -11 27 C-11.9590625 26.690625 -11.9590625 26.690625 -12.9375 26.375 C-15 25 -15 25 -15.75 21.875 C-15.8325 20.92625 -15.915 19.9775 -16 19 C-15.01 18.67 -14.02 18.34 -13 18 C-12.34081717 16.02203492 -12.34081717 16.02203492 -12.0625 13.6875 C-11.26846743 9.57415093 -10.40534857 7.62698319 -7 5 C-6.13375 4.278125 -5.2675 3.55625 -4.375 2.8125 C-2 1 -2 1 0 0 Z M-9 11 C-9.57403212 13.09472556 -9.57403212 13.09472556 -9.8125 15.4375 C-9.92207031 16.21996094 -10.03164062 17.00242187 -10.14453125 17.80859375 C-10.20889331 20.10538186 -10.20889331 20.10538186 -8.51171875 21.78515625 C-7.76341797 22.38650391 -7.76341797 22.38650391 -7 23 C-7.33 23.66 -7.66 24.32 -8 25 C-8.60905306 30.17106617 -8.60905306 30.17106617 -6.76171875 34.7265625 C-3.50647865 37.07957419 0.16878739 36.60856807 4 36 C6.71107713 34.62283334 6.71107713 34.62283334 8 32 C8.33094958 28.22717474 8.19754817 25.59264452 7 22 C7.66 21.34 8.32 20.68 9 20 C9.06058201 17.84742918 9.06058201 17.84742918 8.6875 15.5 C8.53861328 14.30890625 8.53861328 14.30890625 8.38671875 13.09375 C8.09100927 10.9509178 8.09100927 10.9509178 7 9 C5.35 9.33 3.7 9.66 2 10 C2 11.65 2 13.3 2 15 C1.01 15 0.02 15 -1 15 C-0.979375 14.195625 -0.95875 13.39125 -0.9375 12.5625 C-0.70366379 10.06645115 -0.70366379 10.06645115 -2 9 C-5.961168 8.60909667 -5.961168 8.60909667 -9 11 Z " fill="#52514E" transform="translate(25,4)"/>
<path d="M0 0 C2.4375 0.1875 2.4375 0.1875 3.4375 1.1875 C3.47813832 2.85367115 3.480221 4.52138095 3.4375 6.1875 C4.4275 6.1875 5.4175 6.1875 6.4375 6.1875 C6.7675 5.5275 7.0975 4.8675 7.4375 4.1875 C8.4275 4.1875 9.4175 4.1875 10.4375 4.1875 C10.23125 4.97125 10.025 5.755 9.8125 6.5625 C9.68875 7.42875 9.565 8.295 9.4375 9.1875 C10.0975 9.8475 10.7575 10.5075 11.4375 11.1875 C10.73625 11.105 10.035 11.0225 9.3125 10.9375 C5.35657229 11.28149371 3.45183572 12.64206095 0.4375 15.1875 C-0.99029274 18.29685018 -0.99029274 18.29685018 -1.5625 21.1875 C-0.9025 21.1875 -0.2425 21.1875 0.4375 21.1875 C1.77083333 22.52083333 3.10416667 23.85416667 4.4375 25.1875 C5.75403362 25.88675778 7.08548804 26.55957813 8.4375 27.1875 C7.00094146 27.26881463 5.5630517 27.32683559 4.125 27.375 C2.92423828 27.42720703 2.92423828 27.42720703 1.69921875 27.48046875 C-0.5625 27.1875 -0.5625 27.1875 -2.34375 25.92578125 C-3.82588561 23.81183783 -3.88054479 22.74037592 -3.75 20.1875 C-3.72292969 19.506875 -3.69585938 18.82625 -3.66796875 18.125 C-3.61576172 17.1659375 -3.61576172 17.1659375 -3.5625 16.1875 C-3.5625 15.1975 -3.5625 14.2075 -3.5625 13.1875 C-4.2225 12.5275 -4.8825 11.8675 -5.5625 11.1875 C-5.609375 9.09375 -5.609375 9.09375 -5.3125 6.6875 C-5.22484375 5.8934375 -5.1371875 5.099375 -5.046875 4.28125 C-4.29885114 1.04785652 -3.28769212 0.24056284 0 0 Z " fill="#BFAB93" transform="translate(20.5625,12.8125)"/>
<path d="M0 0 C0.99 0.33 1.98 0.66 3 1 C3.12375 1.78375 3.2475 2.5675 3.375 3.375 C3.79117993 6.14057822 3.79117993 6.14057822 6 8 C3.03 7.34 0.06 6.68 -3 6 C-3 6.66 -3 7.32 -3 8 C-3.804375 8.350625 -4.60875 8.70125 -5.4375 9.0625 C-8.41788038 11.31595834 -8.49838146 11.94254439 -9 15.5 C-9.33361614 17.81326478 -9.33361614 17.81326478 -9 20 C-7.59373552 21.78289769 -7.59373552 21.78289769 -6 23 C-6.33 23.66 -6.66 24.32 -7 25 C-7.64077901 30.72500555 -7.64077901 30.72500555 -5 35.5 C-4.34 35.995 -3.68 36.49 -3 37 C-5.25 37.3125 -5.25 37.3125 -8 37 C-10.375 34.8125 -10.375 34.8125 -12 32 C-11.75 29.1875 -11.75 29.1875 -11 27 C-11.9590625 26.690625 -11.9590625 26.690625 -12.9375 26.375 C-15 25 -15 25 -15.75 21.875 C-15.8325 20.92625 -15.915 19.9775 -16 19 C-15.01 18.67 -14.02 18.34 -13 18 C-12.34081717 16.02203492 -12.34081717 16.02203492 -12.0625 13.6875 C-11.26846743 9.57415093 -10.40534857 7.62698319 -7 5 C-6.13375 4.278125 -5.2675 3.55625 -4.375 2.8125 C-2 1 -2 1 0 0 Z " fill="#312E2A" transform="translate(25,4)"/>
<path d="M0 0 C0.99 0.33 1.98 0.66 3 1 C3.12375 1.78375 3.2475 2.5675 3.375 3.375 C3.79117993 6.14057822 3.79117993 6.14057822 6 8 C1.545 7.01 1.545 7.01 -3 6 C-3 6.66 -3 7.32 -3 8 C-3.78375 8.37125 -4.5675 8.7425 -5.375 9.125 C-9.21882589 11.87058992 -9.17703987 14.43631198 -10 19 C-10.66 19 -11.32 19 -12 19 C-12.44811859 10.18700114 -12.44811859 10.18700114 -9 6 C-7 4.875 -7 4.875 -5 4 C-3.9805881 3.01979625 -2.97753644 2.02196992 -2 1 C-1.34 0.67 -0.68 0.34 0 0 Z " fill="#414242" transform="translate(25,4)"/>
<path d="M0 0 C1.4783226 2.95664519 1.06032783 5.74229737 1 9 C-7.25913426 8.65370506 -7.25913426 8.65370506 -10.125 6.125 C-11 4 -11 4 -10 1 C-6.52674819 -0.1577506 -3.63932552 -0.06866652 0 0 Z " fill="#F3EADB" transform="translate(32,27)"/>
<path d="M0 0 C-0.33 1.32 -0.66 2.64 -1 4 C-4.55673617 4.08083491 -7.56815235 3.88973828 -11 3 C-11.33 3.33 -11.66 3.66 -12 4 C-14.33297433 4.04092937 -16.66705225 4.04241723 -19 4 C-19 2.68 -19 1.36 -19 0 C-16.77156512 -0.19600577 -14.54220107 -0.38146569 -12.3125 -0.5625 C-10.45044922 -0.71912109 -10.45044922 -0.71912109 -8.55078125 -0.87890625 C-5.44164467 -0.98493841 -2.99189028 -0.77228525 0 0 Z " fill="#662F10" transform="translate(34,40)"/>
<path d="M0 0 C0.33 0 0.66 0 1 0 C1 1.65 1 3.3 1 5 C1.99 5 2.98 5 4 5 C4.33 4.34 4.66 3.68 5 3 C5.99 3 6.98 3 8 3 C7.79375 3.78375 7.5875 4.5675 7.375 5.375 C7.25125 6.24125 7.1275 7.1075 7 8 C7.66 8.66 8.32 9.32 9 10 C6.03 10 3.06 10 0 10 C-0.33 9.01 -0.66 8.02 -1 7 C-1.99 6.67 -2.98 6.34 -4 6 C-3.67 5.01 -3.34 4.02 -3 3 C-2.01 3 -1.02 3 0 3 C0 2.01 0 1.02 0 0 Z " fill="#CD7C22" transform="translate(23,14)"/>
<path d="M0 0 C2.84262206 1.42131103 3.59335994 3.18671989 5 6 C5.1875 8.8125 5.1875 8.8125 5 11 C4.01 11 3.02 11 2 11 C1.67 12.32 1.34 13.64 1 15 C-0.32 14.67 -1.64 14.34 -3 14 C-2.34 13.34 -1.68 12.68 -1 12 C-0.79853598 8.306493 -0.82646811 5.52059568 -2 2 C-1.34 1.34 -0.68 0.68 0 0 Z " fill="#3A3935" transform="translate(33,24)"/>
<path d="M0 0 C1.32 0 2.64 0 4 0 C5.47075246 4.41225737 6.36884358 7.48281619 5 12 C2.69 12.33 0.38 12.66 -2 13 C-1.67 12.01 -1.34 11.02 -1 10 C-0.34 10 0.32 10 1 10 C1.66 8.02 2.32 6.04 3 4 C2.01 4 1.02 4 0 4 C-0.33 4.99 -0.66 5.98 -1 7 C-1.04254356 5.00045254 -1.04080783 2.99958364 -1 1 C-0.67 0.67 -0.34 0.34 0 0 Z " fill="#F6ECDD" transform="translate(28,13)"/>
<path d="M0 0 C1.2065625 0.0309375 1.2065625 0.0309375 2.4375 0.0625 C2.4375 1.3825 2.4375 2.7025 2.4375 4.0625 C1.4475 4.3925 0.4575 4.7225 -0.5625 5.0625 C-0.5625 5.7225 -0.5625 6.3825 -0.5625 7.0625 C0.0975 7.3925 0.7575 7.7225 1.4375 8.0625 C1.4375 9.3825 1.4375 10.7025 1.4375 12.0625 C0.1175 12.0625 -1.2025 12.0625 -2.5625 12.0625 C-3.73911508 8.38557787 -3.70725933 4.8986222 -3.5625 1.0625 C-2.5625 0.0625 -2.5625 0.0625 0 0 Z " fill="#E3D5C5" transform="translate(20.5625,12.9375)"/>
<path d="M0 0 C0.99 0 1.98 0 3 0 C3.268125 1.093125 3.53625 2.18625 3.8125 3.3125 C4.87663739 6.61692663 5.34654664 7.94960422 8 10 C5.75 10.3125 5.75 10.3125 3 10 C0.625 7.8125 0.625 7.8125 -1 5 C-0.75 2.1875 -0.75 2.1875 0 0 Z " fill="#483E34" transform="translate(14,31)"/>
<path d="M0 0 C0.33 0 0.66 0 1 0 C1.33 3.3 1.66 6.6 2 10 C3.65 10.33 5.3 10.66 7 11 C5.68 11.99 4.36 12.98 3 14 C0.9375 12.0625 0.9375 12.0625 -1 9 C-1.05666696 5.91937821 -0.60438257 3.01534349 0 0 Z M6 8 C7.98 8.99 7.98 8.99 10 10 C8.68 10 7.36 10 6 10 C6 9.34 6 8.68 6 8 Z " fill="#B4A089" transform="translate(16,15)"/>
<path d="M0 0 C2.3828125 -0.29296875 2.3828125 -0.29296875 5.125 -0.1875 C6.03507812 -0.16042969 6.94515625 -0.13335938 7.8828125 -0.10546875 C8.58148438 -0.07066406 9.28015625 -0.03585938 10 0 C9.67 0.66 9.34 1.32 9 2 C6.93359375 2.6328125 6.93359375 2.6328125 4.4375 3.125 C3.19806641 3.37636719 3.19806641 3.37636719 1.93359375 3.6328125 C1.29550781 3.75398438 0.65742188 3.87515625 0 4 C-0.33 5.65 -0.66 7.3 -1 9 C-1.66 9 -2.32 9 -3 9 C-2.5020163 5.26512223 -2.12508244 3.18762365 0 0 Z " fill="#D4C5B0" transform="translate(22,25)"/>
<path d="M0 0 C2.64 0.66 5.28 1.32 8 2 C7.67 2.66 7.34 3.32 7 4 C4.69 4 2.38 4 0 4 C0 2.68 0 1.36 0 0 Z " fill="#D4711B" transform="translate(15,40)"/>
<path d="M0 0 C1.65 0.33 3.3 0.66 5 1 C4.34 2.65 3.68 4.3 3 6 C1.0625 5.625 1.0625 5.625 -1 5 C-1.33 4.34 -1.66 3.68 -2 3 C-1.34 3 -0.68 3 0 3 C0 2.01 0 1.02 0 0 Z " fill="#1B1A16" transform="translate(14,25)"/>
<path d="M0 0 C0.66 0.33 1.32 0.66 2 1 C2 2.32 2 3.64 2 5 C0.35 5 -1.3 5 -3 5 C-3.33 4.01 -3.66 3.02 -4 2 C-2.125 0.9375 -2.125 0.9375 0 0 Z " fill="#282A29" transform="translate(25,4)"/>
<path d="M0 0 C0.33 0 0.66 0 1 0 C1 1.98 1 3.96 1 6 C-0.32 6.33 -1.64 6.66 -3 7 C-3 5.68 -3 4.36 -3 3 C-2.01 3 -1.02 3 0 3 C0 2.01 0 1.02 0 0 Z " fill="#837B71" transform="translate(23,14)"/>
<path d="M0 0 C0.99 0 1.98 0 3 0 C2.79375 0.78375 2.5875 1.5675 2.375 2.375 C2.25125 3.24125 2.1275 4.1075 2 5 C2.66 5.66 3.32 6.32 4 7 C2.68 7 1.36 7 0 7 C-0.93423645 3.98968256 -1.04449911 3.13349732 0 0 Z " fill="#9F9688" transform="translate(28,17)"/>
<path d="M0 0 C1.32 0 2.64 0 4 0 C3.67 1.32 3.34 2.64 3 4 C1.68 4 0.36 4 -1 4 C-0.67 2.68 -0.34 1.36 0 0 Z " fill="#EF8F29" transform="translate(30,40)"/>
<path d="M0 0 C2.0625 0.4375 2.0625 0.4375 4 1 C3.01 2.485 3.01 2.485 2 4 C1.34 4 0.68 4 0 4 C-0.33 4.99 -0.66 5.98 -1 7 C-1.04254356 5.00045254 -1.04080783 2.99958364 -1 1 C-0.67 0.67 -0.34 0.34 0 0 Z " fill="#E6E3DB" transform="translate(28,13)"/>
<path d="M0 0 C2 3 2 3 1.625 5.6875 C1.41875 6.450625 1.2125 7.21375 1 8 C-0.32 7.67 -1.64 7.34 -3 7 C-2.34 6.34 -1.68 5.68 -1 5 C-0.35232207 2.42938689 -0.35232207 2.42938689 0 0 Z " fill="#575044" transform="translate(33,31)"/>
</svg>
